<mxfile host="Electron" modified="2023-05-16T14:34:43.765Z" agent="Mozilla/5.0 (Windows NT 10.0; Win64; x64) AppleWebKit/537.36 (KHTML, like Gecko) draw.io/21.2.8 Chrome/112.0.5615.165 Electron/24.2.0 Safari/537.36" etag="xpnPwb-CfmJ3AxBE_uXw" version="21.2.8" type="device">
  <diagram name="Page-1" id="YpWVVZihGrBSJXwOBpHP">
    <mxGraphModel dx="1206" dy="826" grid="1" gridSize="10" guides="1" tooltips="1" connect="1" arrows="1" fold="1" page="1" pageScale="1" pageWidth="827" pageHeight="1169" math="0" shadow="0">
      <root>
        <mxCell id="0" />
        <mxCell id="1" parent="0" />
        <mxCell id="EbJVGA68E-LRwI5Z2B4P-36" value="" style="rounded=0;whiteSpace=wrap;html=1;" parent="1" vertex="1">
          <mxGeometry x="20" y="20" width="160" height="250" as="geometry" />
        </mxCell>
        <mxCell id="EbJVGA68E-LRwI5Z2B4P-35" value="" style="rounded=0;whiteSpace=wrap;html=1;" parent="1" vertex="1">
          <mxGeometry x="200" y="20" width="570" height="200" as="geometry" />
        </mxCell>
        <mxCell id="EbJVGA68E-LRwI5Z2B4P-34" value="" style="rounded=0;whiteSpace=wrap;html=1;" parent="1" vertex="1">
          <mxGeometry x="620" y="257.88" width="530" height="252.12" as="geometry" />
        </mxCell>
        <mxCell id="uFAtMosG5yBuo42fv5vl-17" value="" style="rounded=1;whiteSpace=wrap;html=1;" parent="1" vertex="1">
          <mxGeometry x="433" y="41" width="127" height="65" as="geometry" />
        </mxCell>
        <mxCell id="uFAtMosG5yBuo42fv5vl-22" value="&lt;b&gt;Blob algorithm.v2&lt;/b&gt;" style="text;html=1;strokeColor=none;fillColor=none;align=center;verticalAlign=middle;whiteSpace=wrap;rounded=0;" parent="1" vertex="1">
          <mxGeometry x="432" y="46" width="120" height="60" as="geometry" />
        </mxCell>
        <mxCell id="uFAtMosG5yBuo42fv5vl-35" value="&amp;nbsp;≈40h" style="text;html=1;strokeColor=none;fillColor=none;align=center;verticalAlign=middle;whiteSpace=wrap;rounded=0;rotation=0;" parent="1" vertex="1">
          <mxGeometry x="533" y="86" width="20" height="20" as="geometry" />
        </mxCell>
        <mxCell id="uFAtMosG5yBuo42fv5vl-38" value="" style="rounded=1;whiteSpace=wrap;html=1;fillColor=#1ba1e2;fontColor=#ffffff;strokeColor=#006EAF;" parent="1" vertex="1">
          <mxGeometry x="638" y="49" width="110" height="55" as="geometry" />
        </mxCell>
        <mxCell id="uFAtMosG5yBuo42fv5vl-39" value="&lt;b&gt;Test code on pi4&lt;/b&gt;" style="text;html=1;strokeColor=none;fillColor=none;align=center;verticalAlign=middle;whiteSpace=wrap;rounded=0;" parent="1" vertex="1">
          <mxGeometry x="638" y="61.5" width="110" height="30" as="geometry" />
        </mxCell>
        <mxCell id="uFAtMosG5yBuo42fv5vl-42" value="&amp;nbsp;≈10h" style="text;html=1;strokeColor=none;fillColor=none;align=center;verticalAlign=middle;whiteSpace=wrap;rounded=0;rotation=0;" parent="1" vertex="1">
          <mxGeometry x="716" y="88.34" width="32" height="15" as="geometry" />
        </mxCell>
        <mxCell id="uFAtMosG5yBuo42fv5vl-47" value="&lt;b&gt;Take a step back&lt;/b&gt;&amp;nbsp;" style="text;html=1;strokeColor=none;fillColor=none;align=center;verticalAlign=middle;whiteSpace=wrap;rounded=0;rotation=0;" parent="1" vertex="1">
          <mxGeometry x="694" y="296" width="111" height="24" as="geometry" />
        </mxCell>
        <mxCell id="uFAtMosG5yBuo42fv5vl-48" value="" style="rounded=1;whiteSpace=wrap;html=1;" parent="1" vertex="1">
          <mxGeometry x="629" y="382" width="119" height="60" as="geometry" />
        </mxCell>
        <mxCell id="uFAtMosG5yBuo42fv5vl-49" value="&lt;b&gt;Blob algorithm.v3&lt;/b&gt;" style="text;html=1;strokeColor=none;fillColor=none;align=center;verticalAlign=middle;whiteSpace=wrap;rounded=0;" parent="1" vertex="1">
          <mxGeometry x="634" y="394.78" width="115" height="30" as="geometry" />
        </mxCell>
        <mxCell id="uFAtMosG5yBuo42fv5vl-59" value="≈25h" style="text;html=1;strokeColor=none;fillColor=none;align=center;verticalAlign=middle;whiteSpace=wrap;rounded=0;rotation=0;" parent="1" vertex="1">
          <mxGeometry x="706.5" y="424.78" width="42.5" height="17.22" as="geometry" />
        </mxCell>
        <mxCell id="uFAtMosG5yBuo42fv5vl-61" value="" style="rounded=1;whiteSpace=wrap;html=1;" parent="1" vertex="1">
          <mxGeometry x="30" y="30" width="140" height="100" as="geometry" />
        </mxCell>
        <mxCell id="uFAtMosG5yBuo42fv5vl-62" value="&lt;br&gt;&lt;b&gt;&lt;span style=&quot;color: rgb(0, 0, 0); font-family: Helvetica; font-size: 12px; font-style: normal; font-variant-ligatures: normal; font-variant-caps: normal; letter-spacing: normal; orphans: 2; text-align: center; text-indent: 0px; text-transform: none; widows: 2; word-spacing: 0px; -webkit-text-stroke-width: 0px; background-color: rgb(251, 251, 251); text-decoration-thickness: initial; text-decoration-style: initial; text-decoration-color: initial; float: none; display: inline !important;&quot;&gt;Choose algorithm for image processing&lt;/span&gt;&lt;br&gt;&lt;/b&gt;" style="text;html=1;strokeColor=none;fillColor=none;align=center;verticalAlign=middle;whiteSpace=wrap;rounded=0;" parent="1" vertex="1">
          <mxGeometry x="42.5" y="61" width="115" height="30" as="geometry" />
        </mxCell>
        <mxCell id="uFAtMosG5yBuo42fv5vl-67" style="edgeStyle=orthogonalEdgeStyle;rounded=0;orthogonalLoop=1;jettySize=auto;html=1;exitX=0.5;exitY=0;exitDx=0;exitDy=0;" parent="1" source="uFAtMosG5yBuo42fv5vl-64" edge="1">
          <mxGeometry relative="1" as="geometry">
            <mxPoint x="893.7391304347827" y="384.99739130434796" as="targetPoint" />
          </mxGeometry>
        </mxCell>
        <mxCell id="uFAtMosG5yBuo42fv5vl-64" value="" style="rounded=1;whiteSpace=wrap;html=1;fillColor=#1ba1e2;fontColor=#ffffff;strokeColor=#006EAF;" parent="1" vertex="1">
          <mxGeometry x="839" y="385.28" width="110" height="55" as="geometry" />
        </mxCell>
        <mxCell id="uFAtMosG5yBuo42fv5vl-65" value="&lt;b&gt;Test code on pi4&lt;/b&gt;" style="text;html=1;strokeColor=none;fillColor=none;align=center;verticalAlign=middle;whiteSpace=wrap;rounded=0;" parent="1" vertex="1">
          <mxGeometry x="839" y="397.78" width="110" height="30" as="geometry" />
        </mxCell>
        <mxCell id="EbJVGA68E-LRwI5Z2B4P-8" value="&amp;nbsp;≈40h" style="text;html=1;strokeColor=none;fillColor=none;align=center;verticalAlign=middle;whiteSpace=wrap;rounded=0;rotation=0;" parent="1" vertex="1">
          <mxGeometry x="301" y="86" width="27.8" height="19.69" as="geometry" />
        </mxCell>
        <mxCell id="EbJVGA68E-LRwI5Z2B4P-14" value="" style="endArrow=classic;html=1;rounded=0;exitX=1;exitY=0.5;exitDx=0;exitDy=0;" parent="1" edge="1">
          <mxGeometry width="50" height="50" relative="1" as="geometry">
            <mxPoint x="343.5" y="74.19000000000005" as="sourcePoint" />
            <mxPoint x="432" y="74" as="targetPoint" />
          </mxGeometry>
        </mxCell>
        <mxCell id="EbJVGA68E-LRwI5Z2B4P-17" value="" style="endArrow=classic;html=1;rounded=0;entryX=-0.007;entryY=0.384;entryDx=0;entryDy=0;entryPerimeter=0;exitX=1;exitY=0.5;exitDx=0;exitDy=0;" parent="1" source="uFAtMosG5yBuo42fv5vl-17" target="uFAtMosG5yBuo42fv5vl-39" edge="1">
          <mxGeometry width="50" height="50" relative="1" as="geometry">
            <mxPoint x="570" y="73" as="sourcePoint" />
            <mxPoint x="638" y="74" as="targetPoint" />
          </mxGeometry>
        </mxCell>
        <mxCell id="EbJVGA68E-LRwI5Z2B4P-20" value="" style="endArrow=classic;html=1;rounded=0;" parent="1" edge="1">
          <mxGeometry width="50" height="50" relative="1" as="geometry">
            <mxPoint x="690.08" y="104" as="sourcePoint" />
            <mxPoint x="690" y="380" as="targetPoint" />
            <Array as="points" />
          </mxGeometry>
        </mxCell>
        <mxCell id="EbJVGA68E-LRwI5Z2B4P-24" value="" style="endArrow=classic;html=1;rounded=0;entryX=0;entryY=0.5;entryDx=0;entryDy=0;" parent="1" edge="1">
          <mxGeometry width="50" height="50" relative="1" as="geometry">
            <mxPoint x="750.5" y="411.6" as="sourcePoint" />
            <mxPoint x="837" y="412.78" as="targetPoint" />
          </mxGeometry>
        </mxCell>
        <mxCell id="EbJVGA68E-LRwI5Z2B4P-27" value="" style="rounded=1;whiteSpace=wrap;html=1;" parent="1" vertex="1">
          <mxGeometry x="214.5" y="40.69" width="127" height="65" as="geometry" />
        </mxCell>
        <mxCell id="EbJVGA68E-LRwI5Z2B4P-5" value="&lt;b&gt;Blob algorithm.v1&lt;/b&gt;" style="text;html=1;strokeColor=none;fillColor=none;align=center;verticalAlign=middle;whiteSpace=wrap;rounded=0;" parent="1" vertex="1">
          <mxGeometry x="221" y="56" width="108" height="30" as="geometry" />
        </mxCell>
        <mxCell id="EbJVGA68E-LRwI5Z2B4P-28" value="&amp;nbsp;≈40h" style="text;html=1;strokeColor=none;fillColor=none;align=center;verticalAlign=middle;whiteSpace=wrap;rounded=0;rotation=0;" parent="1" vertex="1">
          <mxGeometry x="315" y="88.34" width="20" height="20" as="geometry" />
        </mxCell>
        <mxCell id="EbJVGA68E-LRwI5Z2B4P-37" value="&lt;b&gt;&lt;font style=&quot;font-size: 14px;&quot;&gt;Phase 1&lt;/font&gt;&lt;/b&gt;" style="text;html=1;strokeColor=none;fillColor=none;align=center;verticalAlign=middle;whiteSpace=wrap;rounded=0;" parent="1" vertex="1">
          <mxGeometry x="67" y="227.88" width="60" height="30" as="geometry" />
        </mxCell>
        <mxCell id="EbJVGA68E-LRwI5Z2B4P-38" value="&lt;b&gt;&lt;font style=&quot;font-size: 14px;&quot;&gt;Phase 2&lt;/font&gt;&lt;/b&gt;" style="text;html=1;strokeColor=none;fillColor=none;align=center;verticalAlign=middle;whiteSpace=wrap;rounded=0;" parent="1" vertex="1">
          <mxGeometry x="433" y="180" width="60" height="30" as="geometry" />
        </mxCell>
        <mxCell id="EbJVGA68E-LRwI5Z2B4P-39" value="&lt;b&gt;&lt;font style=&quot;font-size: 14px;&quot;&gt;Phase 3&lt;/font&gt;&lt;/b&gt;" style="text;html=1;strokeColor=none;fillColor=none;align=center;verticalAlign=middle;whiteSpace=wrap;rounded=0;" parent="1" vertex="1">
          <mxGeometry x="864" y="476" width="60" height="30" as="geometry" />
        </mxCell>
        <mxCell id="YOW94wADPTWAJKT8_l97-1" value="≈15h" style="text;html=1;strokeColor=none;fillColor=none;align=center;verticalAlign=middle;whiteSpace=wrap;rounded=0;rotation=0;" vertex="1" parent="1">
          <mxGeometry x="906.5" y="424.78" width="42.5" height="17.22" as="geometry" />
        </mxCell>
        <mxCell id="YOW94wADPTWAJKT8_l97-3" value="" style="rounded=1;whiteSpace=wrap;html=1;fillColor=#f5f5f5;strokeColor=#666666;fontColor=#333333;" vertex="1" parent="1">
          <mxGeometry x="1019" y="383.78" width="120" height="60" as="geometry" />
        </mxCell>
        <mxCell id="YOW94wADPTWAJKT8_l97-4" value="&lt;b&gt;Evaluation of Blob algorithm.v3&lt;/b&gt;" style="text;html=1;strokeColor=none;fillColor=none;align=center;verticalAlign=middle;whiteSpace=wrap;rounded=0;" vertex="1" parent="1">
          <mxGeometry x="1024" y="398.78" width="110" height="30" as="geometry" />
        </mxCell>
        <mxCell id="YOW94wADPTWAJKT8_l97-6" value="" style="endArrow=classic;html=1;rounded=0;entryX=0;entryY=0.5;entryDx=0;entryDy=0;" edge="1" parent="1">
          <mxGeometry width="50" height="50" relative="1" as="geometry">
            <mxPoint x="949" y="416" as="sourcePoint" />
            <mxPoint x="1020" y="415.78" as="targetPoint" />
          </mxGeometry>
        </mxCell>
        <mxCell id="YOW94wADPTWAJKT8_l97-7" value="" style="endArrow=classic;html=1;rounded=0;exitX=1;exitY=0.5;exitDx=0;exitDy=0;" edge="1" parent="1">
          <mxGeometry width="50" height="50" relative="1" as="geometry">
            <mxPoint x="170" y="73.69000000000005" as="sourcePoint" />
            <mxPoint x="210" y="74" as="targetPoint" />
          </mxGeometry>
        </mxCell>
        <mxCell id="YOW94wADPTWAJKT8_l97-9" style="edgeStyle=orthogonalEdgeStyle;rounded=0;orthogonalLoop=1;jettySize=auto;html=1;exitX=0.5;exitY=1;exitDx=0;exitDy=0;" edge="1" parent="1" source="EbJVGA68E-LRwI5Z2B4P-36" target="EbJVGA68E-LRwI5Z2B4P-36">
          <mxGeometry relative="1" as="geometry" />
        </mxCell>
        <mxCell id="YOW94wADPTWAJKT8_l97-11" value="" style="ellipse;whiteSpace=wrap;html=1;aspect=fixed;" vertex="1" parent="1">
          <mxGeometry x="57" y="140" width="80" height="80" as="geometry" />
        </mxCell>
        <mxCell id="uFAtMosG5yBuo42fv5vl-29" value="&lt;b&gt;Python with OpenCV&lt;/b&gt;" style="text;html=1;strokeColor=none;fillColor=none;align=center;verticalAlign=middle;whiteSpace=wrap;rounded=0;" parent="1" vertex="1">
          <mxGeometry x="67" y="163" width="60" height="30" as="geometry" />
        </mxCell>
      </root>
    </mxGraphModel>
  </diagram>
</mxfile>
